<svg xmlns="http://www.w3.org/2000/svg" viewBox="0 0 930 1465.5"><defs><style>.cls-1{fill:#57112e;}.cls-1,.cls-2{stroke:#000;stroke-miterlimit:10;}.cls-2{fill:#872745;}.cls-3{fill:#b84361;}.cls-4{fill:none;}.cls-5{fill:#844500;}.cls-6{fill:#efbb89;}.cls-7{fill:#663607;}</style></defs><title>Asset 1</title><g id="Layer_2" data-name="Layer 2"><g id="Layer_4" data-name="Layer 4"><circle class="cls-1" cx="470.75" cy="529.75" r="95.75"/><circle class="cls-2" cx="470.97" cy="516.38" r="66.17"/><circle class="cls-3" cx="470.97" cy="498.86" r="35.28"/><circle class="cls-1" cx="786.75" cy="549.75" r="142.75"/><circle class="cls-2" cx="787.08" cy="529.82" r="98.65"/><circle class="cls-3" cx="787.08" cy="503.69" r="52.59"/><circle class="cls-1" cx="208.75" cy="556.75" r="142.75"/><circle class="cls-2" cx="209.08" cy="536.82" r="98.65"/><circle class="cls-3" cx="209.08" cy="510.69" r="52.59"/><circle class="cls-1" cx="281.75" cy="1080.75" r="106.25"/><circle class="cls-2" cx="281.99" cy="1065.92" r="73.43"/><circle class="cls-3" cx="281.99" cy="1046.47" r="39.14"/><circle class="cls-1" cx="503.75" cy="1191.75" r="106.25"/><circle class="cls-2" cx="503.99" cy="1176.92" r="73.43"/><circle class="cls-3" cx="503.99" cy="1157.47" r="39.14"/><circle class="cls-1" cx="465.25" cy="820.25" r="167.75"/><circle class="cls-2" cx="465.63" cy="796.83" r="115.93"/><circle class="cls-3" cx="465.63" cy="766.12" r="61.8"/><circle class="cls-1" cx="619.25" cy="1033.25" r="70.75"/><circle class="cls-2" cx="619.41" cy="1023.37" r="48.89"/><circle class="cls-3" cx="619.41" cy="1010.42" r="26.07"/><circle class="cls-1" cx="208.25" cy="828.25" r="70.75"/><circle class="cls-2" cx="208.41" cy="818.37" r="48.89"/><circle class="cls-3" cx="208.41" cy="805.42" r="26.07"/><circle class="cls-1" cx="71.25" cy="1394.25" r="70.75"/><circle class="cls-2" cx="71.41" cy="1384.37" r="48.89"/><circle class="cls-3" cx="71.41" cy="1371.42" r="26.07"/><circle class="cls-1" cx="277.75" cy="1321.25" r="97.25"/><circle class="cls-2" cx="277.97" cy="1307.68" r="67.21"/><circle class="cls-3" cx="277.97" cy="1289.87" r="35.83"/><circle class="cls-1" cx="750.75" cy="855.25" r="97.25"/><circle class="cls-2" cx="750.97" cy="841.68" r="67.21"/><circle class="cls-3" cx="750.97" cy="823.87" r="35.83"/></g><g id="Layer_2-2" data-name="Layer 2"><path class="cls-4" d="M427.5,59.5l1.24-1.79q-2.22,1.72-4.6,3.3Z"/><path class="cls-5" d="M446,0l2.47,13.39c2.8,19.44-6.06,33.78-19.73,44.32L427.5,59.5,424.14,61C392.53,82,342,86,342,86S508,99,450,414C450,414,624,201,446,0Z"/><path class="cls-6" d="M428.74,57.71c13.66-10.54,22.52-24.88,19.73-44.32A61,61,0,0,0,446,3S362,27,342,86c0,0,50.53-4,82.14-25Q426.52,59.42,428.74,57.71Z"/><path class="cls-7" d="M427.5,59.5S593,57,449,414c0,0,175-217-3-414C446,0,460,16,427.5,59.5Z"/></g></g></svg>